<svg width="21" height="20" viewBox="0 0 21 20" fill="none" xmlns="http://www.w3.org/2000/svg">
<path d="M18.8333 8.25979H12.5551L15.0923 5.6485C12.5644 3.14833 8.47152 3.05573 5.94357 5.5559C3.41563 8.06533 3.41563 12.1119 5.94357 14.6213C8.47152 17.1308 12.5644 17.1308 15.0923 14.6213C16.3517 13.3805 16.9814 11.9267 16.9814 10.0932H18.8333C18.8333 11.9267 18.0185 14.3065 16.3887 15.9177C13.1385 19.1402 7.86037 19.1402 4.61015 15.9177C1.36919 12.7045 1.34141 7.48196 4.59163 4.26878C7.84185 1.0556 13.0552 1.0556 16.3054 4.26878L18.8333 1.66675V8.25979ZM10.9624 6.29669V10.2321L14.2034 12.1582L13.5367 13.2786L9.57345 10.9266V6.29669H10.9624Z" fill="#202124"/>
</svg>
