<svg width="62" height="69" viewBox="0 0 62 69" fill="none" xmlns="http://www.w3.org/2000/svg">
<path d="M45.2589 0.126953C54.2591 0.126953 61.555 7.4229 61.555 16.423C61.555 25.4231 54.2591 32.7191 45.2589 32.7191C36.2588 32.7191 28.9629 25.4231 28.9629 16.423C28.9629 7.4229 36.2588 0.126953 45.2589 0.126953Z" fill="#A4FF81"/>
<path d="M45.7357 14.7923L25.0479 12.3588C24.9433 12.3453 24.8358 12.3453 24.7316 12.3588L4.04084 14.7923C1.99163 15.0354 0.444824 16.7749 0.444824 18.8379V37.1017C0.444824 47.4672 6.13492 56.9189 15.2973 61.7685L24.2549 66.5105C24.4515 66.6164 24.6702 66.6695 24.8889 66.6695C25.1076 66.6695 25.3263 66.6164 25.5246 66.5118L34.4818 61.7698C43.6429 56.9189 49.333 47.4672 49.333 37.1031V18.8379C49.333 16.7749 47.7862 15.0354 45.7357 14.7923Z" fill="#202124"/>
<path d="M33.8475 57.8523L24.8899 62.5946L15.9327 57.8523C7.24005 53.2501 1.80396 44.2207 1.80396 34.386V16.1209C1.80396 14.7439 2.83484 13.5841 4.20219 13.4238L24.8899 10.9902L45.5777 13.4238C46.9454 13.5854 47.9759 14.7439 47.9759 16.1209V34.3846C47.9759 44.2207 42.5401 53.2501 33.8475 57.8523Z" fill="white"/>
<path d="M24.8889 63.9533C24.6702 63.9533 24.4531 63.9006 24.2532 63.796L15.296 59.054C6.13493 54.2031 0.444824 44.7514 0.444824 34.3872V16.1218C0.444824 14.0564 1.99163 12.3166 4.04216 12.0765L24.7286 9.64294C24.8345 9.63074 24.9404 9.63074 25.0463 9.64294L45.733 12.0765C47.7862 12.3183 49.333 14.0577 49.333 16.1218V34.3856C49.333 44.7514 43.6429 54.2031 34.4805 59.054L25.5229 63.796C25.3247 63.9006 25.1076 63.9533 24.8889 63.9533ZM24.8889 12.3588L4.36149 14.7732C3.67699 14.8534 3.16072 15.4333 3.16072 16.1218V34.3856C3.16072 43.7423 8.29827 52.2746 16.567 56.6528L24.8889 61.0596L33.2108 56.6541C41.4795 52.2746 46.6171 43.7436 46.6171 34.3872V16.1218C46.6171 15.4333 46.1008 14.8534 45.4163 14.7732L24.8889 12.3588Z" fill="#202124"/>
<path d="M24.8896 25.6742C26.7956 25.6742 28.3405 24.129 28.3405 22.2233C28.3405 20.3173 26.7956 18.7725 24.8896 18.7725C22.9839 18.7725 21.4387 20.3173 21.4387 22.2233C21.4387 24.129 22.9839 25.6742 24.8896 25.6742Z" fill="#202124"/>
<path d="M29.9417 34.6688C29.9417 33.7164 30.6889 32.9485 31.6155 32.9485H36.6369C37.5636 32.9485 38.3108 32.1805 38.3108 31.2281C38.3108 30.2758 37.5636 29.5078 36.6369 29.5078H13.1439C12.2173 29.5078 11.4701 30.2758 11.4701 31.2281C11.4701 32.1805 12.2173 32.9485 13.1439 32.9485H18.1653C19.092 32.9485 19.8391 33.7164 19.8391 34.6688V48.4007C19.8391 49.3837 20.6163 50.1827 21.5727 50.1827C22.5293 50.1827 23.2465 49.4454 23.3062 48.5237L24.0534 40.6594C24.0834 40.1986 24.442 39.8604 24.8903 39.8604C25.3389 39.8604 25.6975 40.1986 25.7275 40.6594L26.4747 48.5544C26.5344 49.4761 27.2816 50.2134 28.2082 50.2134C29.1348 50.2134 29.9417 49.4147 29.9417 48.4314V34.6688Z" fill="#202124"/>
<path d="M57.4807 50.9785H26.8081C26.8081 51.9332 26.8081 53.5348 26.8081 53.5348C26.8081 62.0048 33.6755 68.8722 42.1455 68.8722C50.6159 68.8722 57.4807 62.0048 57.4807 53.5348C57.4807 53.5348 57.4807 51.9332 57.4807 50.9785Z" fill="#202124"/>
<path fill-rule="evenodd" clip-rule="evenodd" d="M42.1439 36.9219C49.9047 36.9219 56.2031 43.2269 56.2031 50.981C56.2031 58.7355 49.9047 65.0405 42.1439 65.0405C34.3832 65.0405 28.0845 58.7355 28.0845 50.981C28.0845 43.2269 34.3832 36.9219 42.1439 36.9219Z" fill="white"/>
<path fill-rule="evenodd" clip-rule="evenodd" d="M26.8049 50.98C26.8049 42.51 33.675 35.6426 42.1424 35.6426C50.6087 35.6426 57.4801 42.51 57.4801 50.98C57.4801 59.4503 50.6087 66.3174 42.1424 66.3174C33.6737 66.3174 26.8049 59.4503 26.8049 50.98ZM54.9226 50.98C54.9226 43.9249 49.1952 38.1988 42.1414 38.1988C35.0859 38.1988 29.3598 43.9249 29.3598 50.98C29.3598 58.0351 35.0859 63.7612 42.1414 63.7612C49.1952 63.7612 54.9226 58.0351 54.9226 50.98Z" fill="#202124"/>
<path fill-rule="evenodd" clip-rule="evenodd" d="M39.9598 55.7177L34.8474 50.6052C34.3476 50.1107 34.3476 49.2926 34.8474 48.7994C35.3471 48.3046 36.156 48.3046 36.6558 48.7994L40.8647 53.008L47.6286 46.2432C48.1283 45.7484 48.9372 45.7484 49.437 46.2432C49.9367 46.7377 49.9367 47.5558 49.437 48.0489L41.7682 55.7177C41.2685 56.2112 40.4583 56.2112 39.9598 55.7177Z" fill="#202124"/>
</svg>
