<svg width="70" height="68" viewBox="0 0 70 68" fill="none" xmlns="http://www.w3.org/2000/svg">
<g clip-path="url(#clip0_616_7532)">
<rect width="70" height="68" fill="white"/>
<circle cx="50" cy="20" r="20" fill="#0D4CD3"/>
<path d="M58.1273 29.4219H5.28418V56.0276C5.28418 58.2318 7.05839 60.0184 9.24742 60.0184H54.1641C56.3531 60.0184 58.1273 58.2318 58.1273 56.0276V29.4219Z" fill="black"/>
<path d="M54.1643 56.0277H9.24763C7.78783 56.0277 6.60547 54.8371 6.60547 53.3671V16.1191H56.8064V53.3671C56.8064 54.8371 55.6241 56.0277 54.1643 56.0277Z" fill="white"/>
<path d="M54.1641 57.3582H9.24742C7.06235 57.3582 5.28418 55.5676 5.28418 53.3673V16.1193C5.28418 15.3837 5.8747 14.7891 6.60526 14.7891H56.8062C57.5368 14.7891 58.1273 15.3837 58.1273 16.1193V53.3673C58.1273 55.5676 56.3491 57.3582 54.1641 57.3582ZM7.92634 17.4496V53.3673C7.92634 54.1016 8.51818 54.6976 9.24742 54.6976H54.1641C54.8933 54.6976 55.4852 54.1016 55.4852 53.3673V17.4496H7.92634Z" fill="black"/>
<path d="M56.8064 22.7705H6.60547V25.4311H56.8064V22.7705Z" fill="black"/>
<path d="M17.1741 21.4399C17.9037 21.4399 18.4952 20.8443 18.4952 20.1096C18.4952 19.3749 17.9037 18.7793 17.1741 18.7793C16.4445 18.7793 15.853 19.3749 15.853 20.1096C15.853 20.8443 16.4445 21.4399 17.1741 21.4399Z" fill="black"/>
<path d="M11.8899 21.4399C12.6195 21.4399 13.211 20.8443 13.211 20.1096C13.211 19.3749 12.6195 18.7793 11.8899 18.7793C11.1603 18.7793 10.5688 19.3749 10.5688 20.1096C10.5688 20.8443 11.1603 21.4399 11.8899 21.4399Z" fill="black"/>
<path d="M29.0639 38.7334H13.2109V49.3757C13.2109 50.11 13.8028 50.706 14.532 50.706H27.7428C28.472 50.706 29.0639 50.11 29.0639 49.3757V38.7334Z" fill="black"/>
<path d="M50.2011 38.7334H34.3481V49.3757C34.3481 50.11 34.94 50.706 35.6692 50.706H48.88C49.6092 50.706 50.2011 50.11 50.2011 49.3757V38.7334Z" fill="black"/>
<path d="M50.2011 29.4219H13.2109V33.4127C13.2109 34.147 13.8028 34.743 14.532 34.743H48.8801C49.6093 34.743 50.2011 34.147 50.2011 33.4127V29.4219Z" fill="black"/>
</g>
<defs>
<clipPath id="clip0_616_7532">
<rect width="70" height="68" fill="white"/>
</clipPath>
</defs>
</svg>
