<svg width="90" height="90" viewBox="0 0 90 90" fill="none" xmlns="http://www.w3.org/2000/svg">
<g filter="url(#filter0_dd_195_3070)">
<g clip-path="url(#clip0_195_3070)">
<path d="M11 41C11 22.2223 26.2223 7 45 7C63.7777 7 79 22.2223 79 41C79 59.7777 63.7777 75 45 75C26.2223 75 11 59.7777 11 41Z" fill="#0D4CD3"/>
<g clip-path="url(#clip1_195_3070)">
<path d="M45 32C45.8284 32 46.5 31.3284 46.5 30.5C46.5 29.6716 45.8284 29 45 29C44.1716 29 43.5 29.6716 43.5 30.5C43.5 31.3284 44.1716 32 45 32Z" stroke="white" stroke-width="3" stroke-linecap="round" stroke-linejoin="round"/>
<path d="M40.5 53L45 44L49.5 53" stroke="white" stroke-width="3" stroke-linecap="round" stroke-linejoin="round"/>
<path d="M36 35L45 38L54 35" stroke="white" stroke-width="3" stroke-linecap="round" stroke-linejoin="round"/>
<path d="M45 38V44" stroke="white" stroke-width="3" stroke-linecap="round" stroke-linejoin="round"/>
</g>
</g>
</g>
<defs>
<filter id="filter0_dd_195_3070" x="0" y="0" width="90" height="90" filterUnits="userSpaceOnUse" color-interpolation-filters="sRGB">
<feFlood flood-opacity="0" result="BackgroundImageFix"/>
<feColorMatrix in="SourceAlpha" type="matrix" values="0 0 0 0 0 0 0 0 0 0 0 0 0 0 0 0 0 0 127 0" result="hardAlpha"/>
<feOffset dy="1"/>
<feGaussianBlur stdDeviation="1.5"/>
<feColorMatrix type="matrix" values="0 0 0 0 0 0 0 0 0 0 0 0 0 0 0 0 0 0 0.3 0"/>
<feBlend mode="normal" in2="BackgroundImageFix" result="effect1_dropShadow_195_3070"/>
<feColorMatrix in="SourceAlpha" type="matrix" values="0 0 0 0 0 0 0 0 0 0 0 0 0 0 0 0 0 0 127 0" result="hardAlpha"/>
<feMorphology radius="3" operator="dilate" in="SourceAlpha" result="effect2_dropShadow_195_3070"/>
<feOffset dy="4"/>
<feGaussianBlur stdDeviation="4"/>
<feColorMatrix type="matrix" values="0 0 0 0 0 0 0 0 0 0 0 0 0 0 0 0 0 0 0.15 0"/>
<feBlend mode="normal" in2="effect1_dropShadow_195_3070" result="effect2_dropShadow_195_3070"/>
<feBlend mode="normal" in="SourceGraphic" in2="effect2_dropShadow_195_3070" result="shape"/>
</filter>
<clipPath id="clip0_195_3070">
<path d="M11 41C11 22.2223 26.2223 7 45 7C63.7777 7 79 22.2223 79 41C79 59.7777 63.7777 75 45 75C26.2223 75 11 59.7777 11 41Z" fill="white"/>
</clipPath>
<clipPath id="clip1_195_3070">
<rect width="36" height="36" fill="white" transform="translate(27 23)"/>
</clipPath>
</defs>
</svg>
